<?xml version="1.0" encoding="UTF-8" standalone="no"?>
<svg
   xmlns:dc="http://purl.org/dc/elements/1.1/"
   xmlns:cc="http://creativecommons.org/ns#"
   xmlns:rdf="http://www.w3.org/1999/02/22-rdf-syntax-ns#"
   xmlns:svg="http://www.w3.org/2000/svg"
   xmlns="http://www.w3.org/2000/svg"
   viewBox="0 0 129.33333 134.66667"
   height="134.66667"
   width="129.33333"
   xml:space="preserve"
   id="svg2"
   version="1.1"><metadata
     id="metadata8"><rdf:RDF><cc:Work
         rdf:about=""><dc:format>image/svg+xml</dc:format><dc:type
           rdf:resource="http://purl.org/dc/dcmitype/StillImage" /></cc:Work></rdf:RDF></metadata><defs
     id="defs6"><clipPath
       id="clipPath14"
       clipPathUnits="userSpaceOnUse"><path
         id="path12"
         d="M 0,0 H 612 V 792 H 0 Z" /></clipPath></defs><g
     clip-path="url(#clipPath14)"
     transform="matrix(1.3333333,0,0,-1.3333333,-342.66667,857.33333)"
     id="g10"><g
       transform="scale(0.1)"
       id="g16"><g
         transform="scale(10)"
         id="g18"><text
           id="text22"
           style="font-variant:normal;font-weight:normal;font-size:9.96263981px;font-family:CMR10;-inkscape-font-specification:CMR10;writing-mode:lr-tb;fill:#000000;fill-opacity:1;fill-rule:nonzero;stroke:none"
           transform="matrix(1,0,0,-1,256.92,635.28)"><tspan
             id="tspan20"
             y="0"
             x="0 5.5199881 10.559999 14.519991 19.560003 27.839985 32.279999 36.119991 40.559978 44.519997 48.480019 51.23967 56.279678 68.759499">parameters[0]=</tspan></text>
<text
           id="text26"
           style="font-variant:normal;font-weight:normal;font-size:9.96263981px;font-family:CMMI10;-inkscape-font-specification:CMMI10;writing-mode:lr-tb;fill:#000000;fill-opacity:1;fill-rule:nonzero;stroke:none"
           transform="matrix(1,0,0,-1,343.32,635.28)"><tspan
             id="tspan24"
             y="0"
             x="0">B</tspan></text>
<text
           id="text30"
           style="font-variant:normal;font-weight:normal;font-size:9.96263981px;font-family:CMR10;-inkscape-font-specification:CMR10;writing-mode:lr-tb;fill:#000000;fill-opacity:1;fill-rule:nonzero;stroke:none"
           transform="matrix(1,0,0,-1,256.92,620.3999)"><tspan
             id="tspan28"
             y="0"
             x="0 5.5199881 10.559999 14.519991 19.560003 27.839985 32.279999 36.119991 40.559978 44.519997 48.480019 51.23967 56.279678 68.759499">parameters[1]=</tspan></text>
<text
           id="text34"
           style="font-variant:normal;font-weight:normal;font-size:9.96263981px;font-family:CMMI10;-inkscape-font-specification:CMMI10;writing-mode:lr-tb;fill:#000000;fill-opacity:1;fill-rule:nonzero;stroke:none"
           transform="matrix(1,0,0,-1,343.32,620.3999)"><tspan
             id="tspan32"
             y="0"
             x="0">A</tspan></text>
<text
           id="text38"
           style="font-variant:normal;font-weight:normal;font-size:9.96263981px;font-family:CMR10;-inkscape-font-specification:CMR10;writing-mode:lr-tb;fill:#000000;fill-opacity:1;fill-rule:nonzero;stroke:none"
           transform="matrix(1,0,0,-1,256.92,605.3999)"><tspan
             id="tspan36"
             y="0"
             x="0 5.5199881 10.559999 14.519991 19.560003 27.839985 32.279999 36.119991 40.559978 44.519997 48.480019 51.23967 56.279678 68.759499">parameters[2]=</tspan></text>
<text
           id="text42"
           style="font-variant:normal;font-weight:normal;font-size:9.96263981px;font-family:CMMI10;-inkscape-font-specification:CMMI10;writing-mode:lr-tb;fill:#000000;fill-opacity:1;fill-rule:nonzero;stroke:none"
           transform="matrix(1,0,0,-1,343.32,605.3999)"><tspan
             id="tspan40"
             y="0"
             x="0">ρ</tspan></text>
<text
           id="text46"
           style="font-variant:normal;font-weight:normal;font-size:9.96263981px;font-family:CMR10;-inkscape-font-specification:CMR10;writing-mode:lr-tb;fill:#000000;fill-opacity:1;fill-rule:nonzero;stroke:none"
           transform="matrix(1,0,0,-1,256.92,590.5198)"><tspan
             id="tspan44"
             y="0"
             x="0 5.5199881 10.559999 14.519991 19.560003 27.839985 32.279999 36.119991 40.559978 44.519997 48.480019 51.23967 56.279678 68.759499">parameters[3]=</tspan></text>
<text
           id="text50"
           style="font-variant:normal;font-weight:normal;font-size:9.96263981px;font-family:CMMI10;-inkscape-font-specification:CMMI10;writing-mode:lr-tb;fill:#000000;fill-opacity:1;fill-rule:nonzero;stroke:none"
           transform="matrix(1,0,0,-1,343.32,590.5198)"><tspan
             id="tspan48"
             y="0"
             x="0">µ</tspan></text>
<text
           id="text54"
           style="font-variant:normal;font-weight:normal;font-size:6.97384977px;font-family:CMMI7;-inkscape-font-specification:CMMI7;writing-mode:lr-tb;fill:#000000;fill-opacity:1;fill-rule:nonzero;stroke:none"
           transform="matrix(1,0,0,-1,349.32,589.07996)"><tspan
             id="tspan52"
             y="0"
             x="0">x</tspan></text>
<text
           id="text58"
           style="font-variant:normal;font-weight:normal;font-size:9.96263981px;font-family:CMR10;-inkscape-font-specification:CMR10;writing-mode:lr-tb;fill:#000000;fill-opacity:1;fill-rule:nonzero;stroke:none"
           transform="matrix(1,0,0,-1,256.92,575.51976)"><tspan
             id="tspan56"
             y="0"
             x="0 5.5199881 10.559999 14.519991 19.560003 27.839985 32.279999 36.119991 40.559978 44.519997 48.480019 51.23967 56.279678 68.759499">parameters[4]=</tspan></text>
<text
           id="text62"
           style="font-variant:normal;font-weight:normal;font-size:9.96263981px;font-family:CMMI10;-inkscape-font-specification:CMMI10;writing-mode:lr-tb;fill:#000000;fill-opacity:1;fill-rule:nonzero;stroke:none"
           transform="matrix(1,0,0,-1,343.32,575.51976)"><tspan
             id="tspan60"
             y="0"
             x="0">µ</tspan></text>
<text
           id="text66"
           style="font-variant:normal;font-weight:normal;font-size:6.97384977px;font-family:CMMI7;-inkscape-font-specification:CMMI7;writing-mode:lr-tb;fill:#000000;fill-opacity:1;fill-rule:nonzero;stroke:none"
           transform="matrix(1,0,0,-1,349.32,574.07992)"><tspan
             id="tspan64"
             y="0"
             x="0">y</tspan></text>
<text
           id="text70"
           style="font-variant:normal;font-weight:normal;font-size:9.96263981px;font-family:CMR10;-inkscape-font-specification:CMR10;writing-mode:lr-tb;fill:#000000;fill-opacity:1;fill-rule:nonzero;stroke:none"
           transform="matrix(1,0,0,-1,256.92,560.64012)"><tspan
             id="tspan68"
             y="0"
             x="0 5.5199881 10.559999 14.519991 19.560003 27.839985 32.279999 36.119991 40.559978 44.519997 48.480019 51.23967 56.279678 68.759499">parameters[5]=</tspan></text>
<text
           id="text74"
           style="font-variant:normal;font-weight:normal;font-size:9.96263981px;font-family:CMMI10;-inkscape-font-specification:CMMI10;writing-mode:lr-tb;fill:#000000;fill-opacity:1;fill-rule:nonzero;stroke:none"
           transform="matrix(1,0,0,-1,343.32,560.64012)"><tspan
             id="tspan72"
             y="0"
             x="0">σ</tspan></text>
<text
           id="text78"
           style="font-variant:normal;font-weight:normal;font-size:6.97384977px;font-family:CMMI7;-inkscape-font-specification:CMMI7;writing-mode:lr-tb;fill:#000000;fill-opacity:1;fill-rule:nonzero;stroke:none"
           transform="matrix(1,0,0,-1,348.96023,559.19989)"><tspan
             id="tspan76"
             y="0"
             x="0">x</tspan></text>
<text
           id="text82"
           style="font-variant:normal;font-weight:normal;font-size:9.96263981px;font-family:CMR10;-inkscape-font-specification:CMR10;writing-mode:lr-tb;fill:#000000;fill-opacity:1;fill-rule:nonzero;stroke:none"
           transform="matrix(1,0,0,-1,256.92003,545.64009)"><tspan
             id="tspan80"
             y="0"
             x="0 5.5199881 10.559999 14.519991 19.560003 27.839985 32.279999 36.119991 40.559978 44.519997 48.480019 51.23967 56.279678 68.759499">parameters[6]=</tspan></text>
<text
           id="text86"
           style="font-variant:normal;font-weight:normal;font-size:9.96263981px;font-family:CMMI10;-inkscape-font-specification:CMMI10;writing-mode:lr-tb;fill:#000000;fill-opacity:1;fill-rule:nonzero;stroke:none"
           transform="matrix(1,0,0,-1,343.32003,545.64009)"><tspan
             id="tspan84"
             y="0"
             x="0">σ</tspan></text>
<text
           id="text90"
           style="font-variant:normal;font-weight:normal;font-size:6.97384977px;font-family:CMMI7;-inkscape-font-specification:CMMI7;writing-mode:lr-tb;fill:#000000;fill-opacity:1;fill-rule:nonzero;stroke:none"
           transform="matrix(1,0,0,-1,348.96026,544.19986)"><tspan
             id="tspan88"
             y="0"
             x="0">y</tspan></text>
</g></g></g></svg>